<?xml version="1.0" encoding="UTF-8"?>
<svg width="70px" height="90px" viewBox="0 0 70 90" version="1.1" xmlns="http://www.w3.org/2000/svg" xmlns:xlink="http://www.w3.org/1999/xlink">
    <!-- Generator: Sketch 46.2 (44496) - http://www.bohemiancoding.com/sketch -->
    <title>1F</title>
    <desc>Created with Sketch.</desc>
    <defs></defs>
    <g id="Symbols" stroke="none" stroke-width="1" fill="none" fill-rule="evenodd">
        <g id="figure-copy-3" transform="translate(-40.000000, -29.000000)" fill="#777777">
            <path d="M71.9043265,94.6091596 L71.9043265,98.1707426 C71.9043265,99.8314807 73.2895862,101.172076 75.0010322,101.172076 C76.7104138,101.172076 78.0977379,99.8314807 78.0977379,98.1707426 L78.0977379,94.5891507 C79.9949863,93.5286794 81.2914737,91.5678079 81.2914737,89.306803 C81.2914737,85.945309 78.4693426,83.2040907 75.0010322,83.2040907 C71.5306574,83.2040907 68.7085263,85.945309 68.7085263,89.306803 C68.7085263,91.5277901 69.9451441,93.5286794 71.9043265,94.6091596 M103.806589,105.854157 C103.806589,106.554469 103.633173,112.597154 97.6234996,112.817252 C88.6430531,113.177412 52.9442298,112.85727 52.5044976,112.85727 C51.9512195,112.85727 47.1121007,112.617163 46.1934114,104.673633 L46.1934114,71.3988439 L103.806589,71.3988439 L103.806589,105.854157 Z M106.903294,65.3961761 L56.8791105,65.3961761 L56.8749816,51.3699422 C56.9059486,50.7096487 57.8473472,35.0026679 74.5406553,35.0026679 C81.4277288,35.0026679 86.308137,37.6238328 89.0476893,42.7861272 C91.2112543,46.8679413 91.2876397,51.1098266 91.2897042,51.2298799 C91.2938331,52.8906181 92.6790928,54.2312139 94.3864099,54.2312139 C96.0957914,54.2312139 97.4831156,52.8906181 97.4831156,51.2298799 C97.4831156,43.5464651 92.6873507,29 74.5406553,29 C56.5075058,29 51.0511104,43.4464206 50.6856991,51.2298799 L50.6856991,65.3961761 L43.0967057,65.3961761 C41.3873242,65.3961761 40,66.7367719 40,68.39751 L40,104.833704 C40,104.933748 40.0061934,105.033793 40.0185802,105.133837 C41.2221665,116.298799 48.7987731,118.959982 52.5292712,118.859938 C53.4665408,118.859938 67.8848025,119 80.5936827,119 C87.8482319,119 94.5453741,118.959982 97.8629781,118.81992 C107.462766,118.45976 110,110.196087 110,105.854157 L110,68.39751 C110,66.7367719 108.612676,65.3961761 106.903294,65.3961761 L106.903294,65.3961761 Z" id="1F"></path>
        </g>
    </g>
</svg>