<?xml version="1.0" encoding="UTF-8"?>
<svg width="70px" height="90px" viewBox="0 0 70 90" version="1.1" xmlns="http://www.w3.org/2000/svg" xmlns:xlink="http://www.w3.org/1999/xlink">
    <!-- Generator: Sketch 46.2 (44496) - http://www.bohemiancoding.com/sketch -->
    <title>3F</title>
    <desc>Created with Sketch.</desc>
    <defs></defs>
    <g id="Symbols" stroke="none" stroke-width="1" fill="none" fill-rule="evenodd">
        <g id="figure-copy-3" transform="translate(-40.000000, -30.000000)" fill="#777777">
            <path d="M71.9352936,93.9947781 L71.9352936,97.4804178 C71.9352936,99.1057441 73.3205533,100.417755 75.0319993,100.417755 C76.7413808,100.417755 78.128705,99.1057441 78.128705,97.4804178 L78.128705,93.9751958 C80.0259533,92.9373368 81.3224408,91.0182768 81.3224408,88.805483 C81.3224408,85.5156658 78.5003097,82.8328982 75.0319993,82.8328982 C71.5616244,82.8328982 68.7394933,85.5156658 68.7394933,88.805483 C68.7394933,90.9791123 69.9781756,92.9373368 71.9352936,93.9947781 M103.806589,106.74282 C103.806589,107.447781 103.633173,113.733681 97.6173062,113.968668 C88.6389241,114.301567 52.9462943,114.007833 52.5024331,113.988251 C51.9512195,113.988251 47.1162297,113.733681 46.1934114,105.528721 L46.1934114,71.4947781 L103.806589,71.4947781 L103.806589,106.74282 Z M74.9081311,35.8746736 C92.3012947,35.8746736 93.298434,49.5626632 93.3541747,51.0313316 L93.3541747,65.6201044 L56.4641519,65.6201044 L56.4620875,51.8342037 C56.4806677,51.1684073 57.0793641,35.8746736 74.9081311,35.8746736 Z M106.903294,65.6201044 L99.547586,65.6201044 L99.5455216,50.9530026 C99.3514614,43.7075718 93.9508066,30 74.9081311,30 C55.863391,30 50.4648008,44.1775457 50.2707406,51.7558747 L50.2707406,65.6201044 L43.0967057,65.6201044 C41.3873242,65.6201044 40,66.9321149 40,68.5574413 L40,105.685379 C40,105.78329 40.0061934,105.881201 40.0165158,105.979112 C41.2118442,117.278068 48.8400625,120.078329 52.5272068,119.862924 C53.4665408,119.882507 67.8641578,120 80.5689091,120 C87.8337806,120 94.5474386,119.960836 97.8691716,119.843342 C107.462766,119.471279 110,111.109661 110,106.74282 L110,68.5574413 C110,66.9321149 108.612676,65.6201044 106.903294,65.6201044 L106.903294,65.6201044 Z" id="3F"></path>
        </g>
    </g>
</svg>