<?xml version="1.0" encoding="UTF-8"?>
<svg width="1012px" height="247px" viewBox="0 0 1012 247" version="1.1" xmlns="http://www.w3.org/2000/svg" xmlns:xlink="http://www.w3.org/1999/xlink">
    <!-- Generator: Sketch 47 (45396) - http://www.bohemiancoding.com/sketch -->
    <title>Group 2</title>
    <desc>Created with Sketch.</desc>
    <defs></defs>
    <g id="Page-1" stroke="none" stroke-width="1" fill="none" fill-rule="evenodd">
        <g id="Group-2" fill="#FFFFFF">
            <path d="M84.8820391,64 L84.8820391,94.7054749 L40.8893951,94.7054749 L40.8893951,94.7054749 C35.3665476,94.7054749 30.8893951,99.1826274 30.8893951,104.705475 L30.8893951,203.63229 L30.8893951,203.63229 C30.8893951,209.155137 35.3665476,213.63229 40.8893951,213.63229 L84.8820391,213.63229 L84.8820391,245.365993 L30,245.365993 C13.4314575,245.365993 1.26872023e-14,231.934536 1.0658141e-14,215.365993 L1.0658141e-14,94 L1.0658141e-14,94 C8.62907978e-15,77.4314575 13.4314575,64 30,64 L84.8820391,64 Z M514.882039,65 L514.882039,95.7054749 L470.889395,95.7054749 C465.366548,95.7054749 460.889395,100.182627 460.889395,105.705475 L460.889395,204.63229 C460.889395,210.155137 465.366548,214.63229 470.889395,214.63229 L514.882039,214.63229 L514.882039,246.365993 L460,246.365993 C443.431458,246.365993 430,232.934536 430,216.365993 L430,95 C430,78.4314575 443.431458,65 460,65 L514.882039,65 Z M112,0.766204906 L145,0.766204906 L145,64 L178,64 C194.568542,64 208,77.4314575 208,94 L208,246 L176,246 L176,105 C176,99.4771525 171.522847,95 166,95 L143.902242,95 L143.902242,246 L112,246 L112,0.766204906 Z M270,64 L305,64 C321.568542,64 335,77.4314575 335,94 L335,216 C335,232.568542 321.568542,246 305,246 L270,246 C253.431458,246 240,232.568542 240,216 L240,94 C240,77.4314575 253.431458,64 270,64 L270,64 Z M281,95 C275.477153,95 271,99.4771525 271,105 L271,205 C271,210.522847 275.477153,215 281,215 L281,215 L294,215 C299.522847,215 304,210.522847 304,205 L304,105 C304,99.4771525 299.522847,95 294,95 L281,95 Z M367,64 L398,64 L398,246 L367,246 L367,64 Z M543,1 L575,1 L575,246 L543,246 L543,1 Z M618.115258,64 L669,64 L669,64 C685.568542,64 699,77.4314575 699,94 L699,246 L634,246 C617.431458,246 604,232.568542 604,216 L604,157 C604,140.431458 617.431458,127 634,127 L662,127 C664.761424,127 667,124.761424 667,122 L667,100 C667,97.2385763 664.761424,95 662,95 L618.115258,95 L618.115258,64 Z M667,159.545632 L645,159.545632 C639.477153,159.545632 635,164.022784 635,169.545632 L635,205 C635,210.522847 639.477153,215 645,215 L667,215 L667,159.545632 Z" id="Combined-Shape"></path>
            <path d="M759.167647,214.4625 L761.102941,227.733088 L763.936765,215.775735 L783.842647,145.552206 L795.039706,145.552206 L814.461765,215.775735 L817.226471,227.940441 L819.369118,214.393382 L834.989706,145.552206 L848.329412,145.552206 L823.930882,246.1875 L811.835294,246.1875 L791.1,172.853676 L789.510294,165.181618 L787.920588,172.853676 L766.425,246.1875 L754.329412,246.1875 L730,145.552206 L743.270588,145.552206 L759.167647,214.4625 Z M919.935294,199.671324 L876.322059,199.671324 L876.322059,235.336029 L926.985294,235.336029 L926.985294,246.1875 L863.051471,246.1875 L863.051471,145.552206 L926.294118,145.552206 L926.294118,156.472794 L876.322059,156.472794 L876.322059,188.819853 L919.935294,188.819853 L919.935294,199.671324 Z M943.504412,246.1875 L943.504412,145.552206 L976.404412,145.552206 C987.325055,145.552206 995.538453,147.810026 1001.04485,152.325735 C1006.55125,156.841444 1009.30441,163.52275 1009.30441,172.369853 C1009.30441,177.069876 1007.96815,181.228413 1005.29559,184.845588 C1002.62303,188.462763 998.982866,191.262 994.375,193.243382 C999.812282,194.763978 1004.10905,197.655371 1007.26544,201.917647 C1010.42183,206.179923 1012,211.26002 1012,217.158088 C1012,226.189506 1009.07405,233.285513 1003.22206,238.446324 C997.370069,243.607134 989.099073,246.1875 978.408824,246.1875 L943.504412,246.1875 Z M956.775,199.118382 L956.775,235.336029 L978.685294,235.336029 C984.859835,235.336029 989.73258,233.73482 993.303676,230.532353 C996.874773,227.329886 998.660294,222.91792 998.660294,217.296324 C998.660294,205.177635 992.071144,199.118382 978.892647,199.118382 L956.775,199.118382 Z M956.775,188.474265 L976.819118,188.474265 C982.625029,188.474265 987.267385,187.022809 990.746324,184.119853 C994.225262,181.216897 995.964706,177.277231 995.964706,172.300735 C995.964706,166.771296 994.351977,162.750993 991.126471,160.239706 C987.900964,157.728419 982.99366,156.472794 976.404412,156.472794 L956.775,156.472794 L956.775,188.474265 Z" id="WEB"></path>
        </g>
    </g>
</svg>