<?xml version="1.0" encoding="UTF-8"?>
<svg width="144px" height="154px" viewBox="0 0 144 154" version="1.1" xmlns="http://www.w3.org/2000/svg" xmlns:xlink="http://www.w3.org/1999/xlink">
    <!-- Generator: Sketch 46.2 (44496) - http://www.bohemiancoding.com/sketch -->
    <title>Oval 2</title>
    <desc>Created with Sketch.</desc>
    <defs></defs>
    <g id="Page-1" stroke="none" stroke-width="1" fill="none" fill-rule="evenodd">
        <g id="Artboard-Copy" transform="translate(-302.000000, -672.000000)" stroke-width="3" stroke="#4BB1C2">
            <g id="Group-6" transform="translate(284.000000, 674.000000)">
                <g id="Oval-2" transform="translate(20.000000, 0.000000)">
                    <path d="M70.00066,62 C108.660228,62 140,57.7586458 140,30.3699145 C140,12.1107603 140,1.98745548 140,0 L0.00132003524,0 C0.158994835,3.01947822 0.158994835,13.1427831 0.00132003524,30.3699145 C-0.235192164,56.2106117 31.341092,62 70.00066,62 Z"></path>
                    <path d="M67,114.024365 L67,99.5 L70,99.5 L70,114.098168 C78.0475789,114.893952 85.3809122,120.527896 92,131 L44,131 C50.892252,120.095721 58.5589187,114.437176 67,114.024365 Z M69.5011268,98.9883767 C41.6106506,98.9883767 18.8303235,89.7451163 19.0009523,48.4882023 C19.1147049,20.9835929 19.1147049,4.82085883 19.0009523,0 L120.001301,0 C120.001301,3.17314503 120.001301,19.3358791 120.001301,48.4882023 C120.001301,92.216687 97.391603,98.9883767 69.5011268,98.9883767 Z M19,131 L120,131 L120,150 L19,150 L19,131 Z" id="Combined-Shape" fill="#FFFFFF" fill-rule="evenodd"></path>
                    <polygon id="Star" points="69 45 56.0687244 51.7983739 58.5383783 37.3991869 48.0767566 27.2016261 62.5343622 25.1008131 69 12 75.4656378 25.1008131 89.9232434 27.2016261 79.4616217 37.3991869 81.9312756 51.7983739"></polygon>
                </g>
            </g>
        </g>
    </g>
</svg>